<?xml version="1.0" encoding="utf-8"?>
<!-- Svg Vector Icons : http://www.onlinewebfonts.com/icon -->
<!DOCTYPE svg PUBLIC "-//W3C//DTD SVG 1.1//EN" "http://www.w3.org/Graphics/SVG/1.1/DTD/svg11.dtd">
<svg version="1.1" xmlns="http://www.w3.org/2000/svg" xmlns:xlink="http://www.w3.org/1999/xlink" x="0px" y="0px" viewBox="0 0 256 256" enable-background="new 0 0 256 256" xml:space="preserve">
<metadata> Svg Vector Icons : http://www.onlinewebfonts.com/icon </metadata>
<g><g><g><path fill="#000000" d="M75.9,10.6c-3.4,1.4-5.7,4.8-5.7,8.5c0,4.3,1.7,6.3,8.6,10.3c2.8,1.6,5,3.1,5,3.3c0,0.3-1,0.8-2.1,1.2C78,35.1,70,39.3,64.5,43c-7.2,4.8-16.3,13.9-21.2,21.3c-3.6,5.5-8.5,14.9-9.3,18.1c-0.2,0.8-0.5,1.6-0.7,1.7c-0.2,0.2-1.9-2.4-3.7-5.7c-4-7.1-6.1-8.9-10.5-8.9c-6.2,0-10.7,6.2-8.6,11.9c0.3,0.9,4.9,9,10.1,18c6.6,11.4,10.1,16.9,11.4,17.9c2.5,1.9,7,2.3,9.6,0.9c16.8-9.4,33.5-19.5,34.7-21.1c4.5-5.8,0.2-14.3-7.3-14.3c-2,0-3.8,0.7-10.3,4.5c-4.4,2.5-8,4.4-8.2,4.3c-0.5-0.5,1.6-6.2,4-10.8c6-11.5,15.8-21.3,27.1-27c3.7-1.9,10.4-4.5,11.3-4.5c0.3,0-1.6,3.7-4.2,8.2c-2.6,4.5-4.9,9-5.1,9.9c-0.5,2.4,0.8,6.1,3,8c3.7,3.3,8.6,3.3,12.1,0.1c0.9-0.9,5.9-9,11.1-18c8.1-14.1,9.5-16.9,9.8-19.4c0.3-3.2-0.6-5.3-2.8-7.4c-0.7-0.7-8.9-5.6-18.3-11C80.6,9.5,79.6,9.1,75.9,10.6z"/><path fill="#000000" d="M142.6,10.8c-2.3,1-4.7,3.9-5.1,6.2c-0.2,1-0.2,35.3-0.2,76.3c0.2,74.2,0.2,74.5,1.4,76.1c0.6,0.9,1.9,2.1,2.7,2.7c1.5,1.2,1.9,1.2,50.3,1.2c48.4,0,48.8,0,50.3-1.2c0.9-0.6,2.1-1.9,2.7-2.7c1.2-1.5,1.2-1.7,1.2-77.6c0-75.9,0-76.1-1.2-77.6c-0.6-0.9-1.9-2.1-2.7-2.7c-1.5-1.2-2-1.2-49.6-1.3C153.3,10.1,144,10.2,142.6,10.8z M228.1,91.8v63.6h-36.4h-36.4V91.8V28.2h36.4h36.4V91.8z"/><path fill="#000000" d="M15.4,138c-2.3,1-4.7,3.9-5.1,6.2c-0.2,1-0.3,23.1-0.2,49.1c0.2,46.7,0.2,47.3,1.4,48.8c0.6,0.9,1.9,2.1,2.7,2.7c1.5,1.2,1.7,1.2,77.6,1.2s76.1,0,77.6-1.2c0.9-0.6,2.1-1.9,2.7-2.7c1.1-1.5,1.2-2.3,1.4-26l0.2-24.4h-9.1h-9.1v18.2v18.2H91.8H28.2v-36.4v-36.4h45.4H119v-9.1v-9.1h-51C27,137.3,16.7,137.4,15.4,138z"/></g></g></g>
</svg>